<svg width="906" height="150" viewBox="0 0 906 150" fill="none" xmlns="http://www.w3.org/2000/svg">
<mask id="path-1-outside-1_26_1518" maskUnits="userSpaceOnUse" x="5" y="13" width="891" height="97" fill="black">
<rect fill="white" x="5" y="13" width="891" height="97"/>
<path d="M7.02515 61.56C7.02515 55.56 8.14515 49.88 10.3852 44.52C12.7052 39.16 15.9052 34.4 19.9852 30.24C24.0652 26.08 28.7852 22.84 34.1452 20.52C39.5052 18.12 45.2652 16.92 51.4252 16.92C57.5052 16.92 63.2252 18.12 68.5852 20.52C73.9452 22.84 78.7052 26.08 82.8652 30.24C87.0252 34.4 90.2652 39.16 92.5852 44.52C94.9052 49.88 96.0652 55.56 96.0652 61.56C96.0652 67.72 94.9052 73.48 92.5852 78.84C90.2652 84.2 87.0252 88.92 82.8652 93C78.7852 97.08 74.0252 100.28 68.5852 102.6C63.2252 104.84 57.5052 105.96 51.4252 105.96C45.2652 105.96 39.5052 104.84 34.1452 102.6C28.7852 100.36 24.0652 97.24 19.9852 93.24C15.9052 89.16 12.7052 84.44 10.3852 79.08C8.14515 73.64 7.02515 67.8 7.02515 61.56ZM20.2252 61.56C20.2252 66.04 21.0252 70.24 22.6252 74.16C24.3052 78 26.5852 81.4 29.4652 84.36C32.3452 87.24 35.6652 89.52 39.4252 91.2C43.2652 92.8 47.3852 93.6 51.7852 93.6C56.1052 93.6 60.1452 92.8 63.9052 91.2C67.6652 89.52 70.9452 87.24 73.7452 84.36C76.6252 81.4 78.8652 78 80.4652 74.16C82.0652 70.24 82.8652 66.04 82.8652 61.56C82.8652 57.08 82.0252 52.92 80.3452 49.08C78.7452 45.16 76.5052 41.72 73.6252 38.76C70.8252 35.8 67.5052 33.48 63.6652 31.8C59.9052 30.12 55.8652 29.28 51.5452 29.28C47.0652 29.28 42.9452 30.12 39.1852 31.8C35.4252 33.48 32.1052 35.8 29.2252 38.76C26.3452 41.72 24.1052 45.16 22.5052 49.08C20.9852 53 20.2252 57.16 20.2252 61.56ZM224.759 108L157.679 41.4L161.399 42.6L161.759 105H148.799V15.12H149.399L215.639 81.84L212.639 81L212.399 17.88H225.119V108H224.759ZM277.897 61.56C277.897 55.56 279.017 49.88 281.257 44.52C283.577 39.16 286.777 34.4 290.857 30.24C294.937 26.08 299.657 22.84 305.017 20.52C310.377 18.12 316.137 16.92 322.297 16.92C328.377 16.92 334.097 18.12 339.457 20.52C344.817 22.84 349.577 26.08 353.737 30.24C357.897 34.4 361.137 39.16 363.457 44.52C365.777 49.88 366.937 55.56 366.937 61.56C366.937 67.72 365.777 73.48 363.457 78.84C361.137 84.2 357.897 88.92 353.737 93C349.657 97.08 344.897 100.28 339.457 102.6C334.097 104.84 328.377 105.96 322.297 105.96C316.137 105.96 310.377 104.84 305.017 102.6C299.657 100.36 294.937 97.24 290.857 93.24C286.777 89.16 283.577 84.44 281.257 79.08C279.017 73.64 277.897 67.8 277.897 61.56ZM291.097 61.56C291.097 66.04 291.897 70.24 293.497 74.16C295.177 78 297.457 81.4 300.337 84.36C303.217 87.24 306.537 89.52 310.297 91.2C314.137 92.8 318.257 93.6 322.657 93.6C326.977 93.6 331.017 92.8 334.777 91.2C338.537 89.52 341.817 87.24 344.617 84.36C347.497 81.4 349.737 78 351.337 74.16C352.937 70.24 353.737 66.04 353.737 61.56C353.737 57.08 352.897 52.92 351.217 49.08C349.617 45.16 347.377 41.72 344.497 38.76C341.697 35.8 338.377 33.48 334.537 31.8C330.777 30.12 326.737 29.28 322.417 29.28C317.937 29.28 313.817 30.12 310.057 31.8C306.297 33.48 302.977 35.8 300.097 38.76C297.217 41.72 294.977 45.16 293.377 49.08C291.857 53 291.097 57.16 291.097 61.56ZM419.67 105V15H419.79L466.11 80.64L460.59 79.44L506.67 15H506.91V105H494.19V43.92L495.03 50.52L462.87 96H462.63L429.87 50.52L432.03 44.52V105H419.67ZM564.95 17.88H577.79V105H564.95V17.88ZM700.016 98.4C698.736 99.28 696.816 100.36 694.256 101.64C691.776 102.84 688.816 103.88 685.376 104.76C682.016 105.64 678.296 106.04 674.216 105.96C667.416 105.88 661.296 104.68 655.856 102.36C650.496 100.04 645.936 96.88 642.176 92.88C638.416 88.8 635.496 84.16 633.416 78.96C631.416 73.68 630.416 68.08 630.416 62.16C630.416 55.6 631.456 49.6 633.536 44.16C635.616 38.64 638.576 33.84 642.416 29.76C646.336 25.68 650.896 22.52 656.096 20.28C661.376 18.04 667.136 16.92 673.376 16.92C678.736 16.92 683.576 17.64 687.896 19.08C692.216 20.52 695.856 22.2 698.816 24.12L693.776 36.12C691.456 34.52 688.576 33 685.136 31.56C681.776 30.04 678.016 29.28 673.856 29.28C669.776 29.28 665.896 30.12 662.216 31.8C658.616 33.4 655.416 35.68 652.616 38.64C649.896 41.52 647.736 44.92 646.136 48.84C644.536 52.68 643.736 56.88 643.736 61.44C643.736 66.08 644.456 70.36 645.896 74.28C647.336 78.2 649.376 81.6 652.016 84.48C654.736 87.36 657.976 89.6 661.736 91.2C665.496 92.8 669.736 93.6 674.456 93.6C678.936 93.6 682.856 92.92 686.216 91.56C689.656 90.2 692.456 88.64 694.616 86.88L700.016 98.4ZM822.693 17.88V105H809.853V67.44H765.693V105H752.853V17.88H765.693V55.2H809.853V17.88H822.693ZM880.789 17.88H893.629V105H880.789V17.88Z"/>
</mask>
<path d="M10.3851 44.52L8.54971 43.7256L8.54469 43.7372L8.53981 43.7488L10.3851 44.52ZM34.1452 20.52L34.9396 22.3554L34.9511 22.3505L34.9625 22.3454L34.1452 20.52ZM68.5852 20.52L67.7678 22.3454L67.7792 22.3505L67.7907 22.3554L68.5852 20.52ZM82.8652 30.24L81.4509 31.6542L82.8652 30.24ZM92.5852 44.52L90.7497 45.3144L92.5852 44.52ZM92.5852 78.84L94.4206 79.6344L92.5852 78.84ZM82.8652 93L81.4647 91.5721L81.4578 91.5789L81.4509 91.5858L82.8652 93ZM68.5852 102.6L69.3563 104.445L69.363 104.443L69.3697 104.44L68.5852 102.6ZM34.1452 102.6L34.9163 100.755L34.1452 102.6ZM19.9852 93.24L18.5709 94.6542L18.5779 94.6612L18.585 94.6681L19.9852 93.24ZM10.3851 79.08L8.53579 79.8415L8.5426 79.858L8.54971 79.8744L10.3851 79.08ZM22.6252 74.16L20.7735 74.9158L20.7829 74.9388L20.7928 74.9616L22.6252 74.16ZM29.4652 84.36L28.0317 85.7547L28.0413 85.7645L28.0509 85.7742L29.4652 84.36ZM39.4252 91.2L38.6093 93.026L38.6325 93.0364L38.6559 93.0462L39.4252 91.2ZM63.9052 91.2L64.6883 93.0403L64.7047 93.0333L64.721 93.026L63.9052 91.2ZM73.7452 84.36L72.3117 82.9653L72.3112 82.9658L73.7452 84.36ZM80.4652 74.16L82.3113 74.9292L82.3141 74.9225L82.3168 74.9158L80.4652 74.16ZM80.3452 49.08L78.4935 49.8358L78.5029 49.8588L78.5128 49.8816L80.3452 49.08ZM73.6252 38.76L72.1722 40.1344L72.1819 40.1446L72.1917 40.1547L73.6252 38.76ZM63.6652 31.8L62.8493 33.626L62.8564 33.6292L62.8635 33.6323L63.6652 31.8ZM39.1852 31.8L40.001 33.626H40.001L39.1852 31.8ZM29.2252 38.76L27.7917 37.3653L29.2252 38.76ZM22.5051 49.08L20.6535 48.3242L20.6468 48.3405L20.6404 48.3569L22.5051 49.08ZM9.02515 61.56C9.02515 55.8159 10.096 50.3988 12.2305 45.2912L8.53981 43.7488C6.19435 49.3612 5.02515 55.3041 5.02515 61.56H9.02515ZM12.2206 45.3144C14.4433 40.1792 17.5053 35.6247 21.413 31.6404L18.5573 28.8396C14.305 33.1753 10.967 38.1408 8.54971 43.7256L12.2206 45.3144ZM21.413 31.6404C25.3116 27.6655 29.8163 24.573 34.9396 22.3554L33.3507 18.6845C27.754 21.107 22.8188 24.4945 18.5573 28.8396L21.413 31.6404ZM34.9625 22.3454C40.0528 20.0661 45.5328 18.92 51.4252 18.92V14.92C44.9975 14.92 38.9575 16.1739 33.3278 18.6946L34.9625 22.3454ZM51.4252 18.92C57.2336 18.92 62.6741 20.0646 67.7678 22.3454L69.4025 18.6946C63.7762 16.1754 57.7767 14.92 51.4252 14.92V18.92ZM67.7907 22.3554C72.9177 24.5746 77.4678 27.6711 81.4509 31.6542L84.2794 28.8258C79.9425 24.4889 74.9726 21.1054 69.3796 18.6845L67.7907 22.3554ZM81.4509 31.6542C85.4341 35.6373 88.5306 40.1875 90.7497 45.3144L94.4206 43.7256C91.9997 38.1325 88.6162 33.1627 84.2794 28.8258L81.4509 31.6542ZM90.7497 45.3144C92.9582 50.4167 94.0652 55.8256 94.0652 61.56H98.0652C98.0652 55.2944 96.8521 49.3433 94.4206 43.7256L90.7497 45.3144ZM94.0652 61.56C94.0652 67.4619 92.9553 72.9499 90.7497 78.0456L94.4206 79.6344C96.855 74.0101 98.0652 67.9781 98.0652 61.56H94.0652ZM90.7497 78.0456C88.5322 83.1688 85.4397 87.6736 81.4647 91.5721L84.2656 94.4279C88.6106 90.1664 91.9981 85.2311 94.4206 79.6344L90.7497 78.0456ZM81.4509 91.5858C77.5563 95.4805 73.0114 98.538 67.8006 100.76L69.3697 104.44C75.0389 102.022 80.0141 98.6795 84.2794 94.4142L81.4509 91.5858ZM67.814 100.755C62.7096 102.888 57.253 103.96 51.4252 103.96V107.96C57.7574 107.96 63.7407 106.792 69.3563 104.445L67.814 100.755ZM51.4252 103.96C45.5137 103.96 40.0175 102.886 34.9163 100.755L33.374 104.445C38.9928 106.794 45.0166 107.96 51.4252 107.96V103.96ZM34.9163 100.755C29.7866 98.6109 25.2809 95.6311 21.3853 91.8119L18.585 94.6681C22.8494 98.8489 27.7837 102.109 33.374 104.445L34.9163 100.755ZM21.3994 91.8258C17.4998 87.9262 14.4417 83.4172 12.2206 78.2856L8.54971 79.8744C10.9686 85.4628 14.3105 90.3938 18.5709 94.6542L21.3994 91.8258ZM12.2345 78.3185C10.0999 73.1345 9.02515 67.5548 9.02515 61.56H5.02515C5.02515 68.0452 6.19039 74.1455 8.53579 79.8415L12.2345 78.3185ZM18.2252 61.56C18.2252 66.2839 19.0699 70.7421 20.7735 74.9158L24.4768 73.4042C22.9804 69.7379 22.2252 65.7961 22.2252 61.56H18.2252ZM20.7928 74.9616C22.5676 79.0183 24.9817 82.62 28.0317 85.7547L30.8986 82.9653C28.1886 80.18 26.0427 76.9817 24.4575 73.3584L20.7928 74.9616ZM28.0509 85.7742C31.1055 88.8288 34.6289 91.2476 38.6093 93.026L40.241 89.374C36.7014 87.7924 33.5848 85.6512 30.8794 82.9458L28.0509 85.7742ZM38.6559 93.0462C42.7535 94.7535 47.1366 95.6 51.7852 95.6V91.6C47.6337 91.6 43.7768 90.8465 40.1944 89.3538L38.6559 93.0462ZM51.7852 95.6C56.3586 95.6 60.6666 94.7516 64.6883 93.0403L63.122 89.3597C59.6237 90.8484 55.8517 91.6 51.7852 91.6V95.6ZM64.721 93.026C68.7066 91.2452 72.1978 88.8206 75.1791 85.7542L72.3112 82.9658C69.6925 85.6594 66.6237 87.7948 63.0893 89.374L64.721 93.026ZM75.1786 85.7547C78.2357 82.6127 80.6151 79.0001 82.3113 74.9292L78.619 73.3908C77.1152 76.9999 75.0146 80.1873 72.3117 82.9653L75.1786 85.7547ZM82.3168 74.9158C84.0204 70.7421 84.8652 66.2839 84.8652 61.56H80.8652C80.8652 65.7961 80.1099 69.7379 78.6135 73.4042L82.3168 74.9158ZM84.8652 61.56C84.8652 56.8234 83.9755 52.3882 82.1775 48.2784L78.5128 49.8816C80.0748 53.4518 80.8652 57.3366 80.8652 61.56H84.8652ZM82.1969 48.3242C80.5023 44.1725 78.1223 40.5141 75.0586 37.3653L72.1917 40.1547C74.888 42.9259 76.988 46.1475 78.4935 49.8358L82.1969 48.3242ZM75.0781 37.3856C72.0885 34.2252 68.5452 31.752 64.4668 29.9677L62.8635 33.6323C66.4651 35.208 69.5618 37.3748 72.1722 40.1344L75.0781 37.3856ZM64.481 29.974C60.4518 28.1737 56.1323 27.28 51.5452 27.28V31.28C55.5981 31.28 59.3585 32.0663 62.8493 33.626L64.481 29.974ZM51.5452 27.28C46.809 27.28 42.4078 28.1695 38.3693 29.974L40.001 33.626C43.4825 32.0705 47.3213 31.28 51.5452 31.28V27.28ZM38.3693 29.974C34.3773 31.7576 30.8479 34.2242 27.7917 37.3653L30.6586 40.1547C33.3624 37.3758 36.473 35.2024 40.001 33.626L38.3693 29.974ZM27.7917 37.3653C24.728 40.5141 22.348 44.1725 20.6535 48.3242L24.3568 49.8358C25.8623 46.1475 27.9623 42.9259 30.6586 40.1547L27.7917 37.3653ZM20.6404 48.3569C19.0269 52.5182 18.2252 56.9244 18.2252 61.56H22.2252C22.2252 57.3956 22.9434 53.4818 24.3699 49.8031L20.6404 48.3569ZM224.759 108L223.349 109.419L223.934 110H224.759V108ZM157.679 41.4L158.293 39.4966L156.269 42.8193L157.679 41.4ZM161.399 42.6L163.399 42.5885L163.39 41.141L162.013 40.6966L161.399 42.6ZM161.759 105V107H163.77L163.759 104.988L161.759 105ZM148.799 105H146.799V107H148.799V105ZM148.799 15.12V13.12H146.799V15.12H148.799ZM149.399 15.12L150.818 13.7109L150.231 13.12H149.399V15.12ZM215.639 81.84L215.099 83.7659L222.398 85.8095L217.058 80.4309L215.639 81.84ZM212.639 81L210.639 81.0076L210.644 82.5185L212.099 82.9259L212.639 81ZM212.399 17.88V15.88H210.391L210.399 17.8876L212.399 17.88ZM225.119 17.88H227.119V15.88H225.119V17.88ZM225.119 108V110H227.119V108H225.119ZM226.168 106.581L159.088 39.9807L156.269 42.8193L223.349 109.419L226.168 106.581ZM157.065 43.3034L160.785 44.5034L162.013 40.6966L158.293 39.4966L157.065 43.3034ZM159.399 42.6115L159.759 105.012L163.759 104.988L163.399 42.5885L159.399 42.6115ZM161.759 103H148.799V107H161.759V103ZM150.799 105V15.12H146.799V105H150.799ZM148.799 17.12H149.399V13.12H148.799V17.12ZM147.979 16.5291L214.219 83.2491L217.058 80.4309L150.818 13.7109L147.979 16.5291ZM216.178 79.9141L213.178 79.0741L212.099 82.9259L215.099 83.7659L216.178 79.9141ZM214.639 80.9924L214.399 17.8724L210.399 17.8876L210.639 81.0076L214.639 80.9924ZM212.399 19.88H225.119V15.88H212.399V19.88ZM223.119 17.88V108H227.119V17.88H223.119ZM225.119 106H224.759V110H225.119V106ZM281.257 44.52L279.422 43.7256L279.417 43.7372L279.412 43.7488L281.257 44.52ZM305.017 20.52L305.811 22.3554L305.823 22.3505L305.834 22.3454L305.017 20.52ZM339.457 20.52L338.64 22.3454L338.651 22.3505L338.663 22.3554L339.457 20.52ZM353.737 30.24L352.323 31.6542L353.737 30.24ZM363.457 44.52L361.622 45.3144L363.457 44.52ZM363.457 78.84L365.292 79.6344L363.457 78.84ZM353.737 93L352.337 91.5721L352.33 91.5789L352.323 91.5858L353.737 93ZM339.457 102.6L340.228 104.445L340.235 104.443L340.242 104.44L339.457 102.6ZM305.017 102.6L305.788 100.755L305.017 102.6ZM290.857 93.24L289.443 94.6542L289.45 94.6612L289.457 94.6681L290.857 93.24ZM281.257 79.08L279.408 79.8415L279.414 79.858L279.422 79.8744L281.257 79.08ZM293.497 74.16L291.645 74.9158L291.655 74.9388L291.665 74.9616L293.497 74.16ZM300.337 84.36L298.904 85.7547L298.913 85.7645L298.923 85.7742L300.337 84.36ZM310.297 91.2L309.481 93.026L309.504 93.0364L309.528 93.0462L310.297 91.2ZM334.777 91.2L335.56 93.0403L335.577 93.0333L335.593 93.026L334.777 91.2ZM344.617 84.36L343.184 82.9653L343.183 82.9658L344.617 84.36ZM351.337 74.16L353.183 74.9292L353.186 74.9225L353.189 74.9158L351.337 74.16ZM351.217 49.08L349.365 49.8358L349.375 49.8588L349.385 49.8816L351.217 49.08ZM344.497 38.76L343.044 40.1344L343.054 40.1446L343.064 40.1547L344.497 38.76ZM334.537 31.8L333.721 33.626L333.728 33.6292L333.735 33.6323L334.537 31.8ZM310.057 31.8L310.873 33.626L310.057 31.8ZM300.097 38.76L298.664 37.3653L300.097 38.76ZM293.377 49.08L291.525 48.3242L291.519 48.3405L291.512 48.3569L293.377 49.08ZM279.897 61.56C279.897 55.8159 280.968 50.3988 283.102 45.2912L279.412 43.7488C277.066 49.3612 275.897 55.3041 275.897 61.56H279.897ZM283.092 45.3144C285.315 40.1792 288.377 35.6247 292.285 31.6404L289.429 28.8396C285.177 33.1753 281.839 38.1408 279.422 43.7256L283.092 45.3144ZM292.285 31.6404C296.183 27.6655 300.688 24.573 305.811 22.3554L304.223 18.6845C298.626 21.107 293.691 24.4945 289.429 28.8396L292.285 31.6404ZM305.834 22.3454C310.925 20.0661 316.405 18.92 322.297 18.92V14.92C315.869 14.92 309.829 16.1739 304.2 18.6946L305.834 22.3454ZM322.297 18.92C328.106 18.92 333.546 20.0646 338.64 22.3454L340.274 18.6946C334.648 16.1754 328.649 14.92 322.297 14.92V18.92ZM338.663 22.3554C343.79 24.5746 348.34 27.6711 352.323 31.6542L355.151 28.8258C350.814 24.4889 345.844 21.1054 340.251 18.6845L338.663 22.3554ZM352.323 31.6542C356.306 35.6373 359.402 40.1875 361.622 45.3144L365.292 43.7256C362.872 38.1325 359.488 33.1627 355.151 28.8258L352.323 31.6542ZM361.622 45.3144C363.83 50.4167 364.937 55.8256 364.937 61.56H368.937C368.937 55.2944 367.724 49.3433 365.292 43.7256L361.622 45.3144ZM364.937 61.56C364.937 67.4619 363.827 72.9499 361.622 78.0456L365.292 79.6344C367.727 74.0101 368.937 67.9781 368.937 61.56H364.937ZM361.622 78.0456C359.404 83.1688 356.312 87.6736 352.337 91.5721L355.137 94.4279C359.482 90.1664 362.87 85.2311 365.292 79.6344L361.622 78.0456ZM352.323 91.5858C348.428 95.4805 343.883 98.538 338.672 100.76L340.242 104.44C345.911 102.022 350.886 98.6795 355.151 94.4142L352.323 91.5858ZM338.686 100.755C333.581 102.888 328.125 103.96 322.297 103.96V107.96C328.629 107.96 334.613 106.792 340.228 104.445L338.686 100.755ZM322.297 103.96C316.386 103.96 310.889 102.886 305.788 100.755L304.246 104.445C309.865 106.794 315.888 107.96 322.297 107.96V103.96ZM305.788 100.755C300.658 98.6109 296.153 95.6311 292.257 91.8119L289.457 94.6681C293.721 98.8489 298.656 102.109 304.246 104.445L305.788 100.755ZM292.271 91.8258C288.372 87.9262 285.314 83.4172 283.092 78.2856L279.422 79.8744C281.84 85.4628 285.182 90.3938 289.443 94.6542L292.271 91.8258ZM283.106 78.3185C280.972 73.1345 279.897 67.5548 279.897 61.56H275.897C275.897 68.0452 277.062 74.1455 279.408 79.8415L283.106 78.3185ZM289.097 61.56C289.097 66.2839 289.942 70.7421 291.645 74.9158L295.349 73.4042C293.852 69.7379 293.097 65.7961 293.097 61.56H289.097ZM291.665 74.9616C293.44 79.0183 295.854 82.62 298.904 85.7547L301.77 82.9653C299.061 80.18 296.915 76.9817 295.329 73.3584L291.665 74.9616ZM298.923 85.7742C301.977 88.8288 305.501 91.2476 309.481 93.026L311.113 89.374C307.573 87.7924 304.457 85.6512 301.751 82.9458L298.923 85.7742ZM309.528 93.0462C313.625 94.7535 318.008 95.6 322.657 95.6V91.6C318.506 91.6 314.649 90.8465 311.066 89.3538L309.528 93.0462ZM322.657 95.6C327.231 95.6 331.539 94.7516 335.56 93.0403L333.994 89.3597C330.496 90.8484 326.724 91.6 322.657 91.6V95.6ZM335.593 93.026C339.578 91.2452 343.07 88.8206 346.051 85.7542L343.183 82.9658C340.564 85.6594 337.496 87.7948 333.961 89.374L335.593 93.026ZM346.051 85.7547C349.108 82.6127 351.487 79.0001 353.183 74.9292L349.491 73.3908C347.987 76.9999 345.887 80.1873 343.184 82.9653L346.051 85.7547ZM353.189 74.9158C354.892 70.7421 355.737 66.2839 355.737 61.56H351.737C351.737 65.7961 350.982 69.7379 349.485 73.4042L353.189 74.9158ZM355.737 61.56C355.737 56.8234 354.847 52.3882 353.049 48.2784L349.385 49.8816C350.947 53.4518 351.737 57.3366 351.737 61.56H355.737ZM353.069 48.3242C351.374 44.1725 348.994 40.5141 345.93 37.3653L343.064 40.1547C345.76 42.9259 347.86 46.1475 349.365 49.8358L353.069 48.3242ZM345.95 37.3856C342.96 34.2252 339.417 31.752 335.339 29.9677L333.735 33.6323C337.337 35.208 340.434 37.3748 343.044 40.1344L345.95 37.3856ZM335.353 29.974C331.324 28.1737 327.004 27.28 322.417 27.28V31.28C326.47 31.28 330.23 32.0663 333.721 33.626L335.353 29.974ZM322.417 27.28C317.681 27.28 313.28 28.1695 309.241 29.974L310.873 33.626C314.354 32.0705 318.193 31.28 322.417 31.28V27.28ZM309.241 29.974C305.249 31.7576 301.72 34.2242 298.664 37.3653L301.53 40.1547C304.234 37.3758 307.345 35.2024 310.873 33.626L309.241 29.974ZM298.664 37.3653C295.6 40.5141 293.22 44.1725 291.525 48.3242L295.229 49.8358C296.734 46.1475 298.834 42.9259 301.53 40.1547L298.664 37.3653ZM291.512 48.3569C289.899 52.5182 289.097 56.9244 289.097 61.56H293.097C293.097 57.3956 293.815 53.4818 295.242 49.8031L291.512 48.3569ZM419.67 105H417.67V107H419.67V105ZM419.67 15V13H417.67V15H419.67ZM419.79 15L421.425 13.8469L420.827 13H419.79V15ZM466.11 80.64L465.686 82.5944L470.708 83.6861L467.745 79.4869L466.11 80.64ZM460.59 79.44L458.964 78.2767L457.196 80.7488L460.166 81.3943L460.59 79.44ZM506.67 15V13H505.642L505.044 13.8367L506.67 15ZM506.91 15H508.91V13H506.91V15ZM506.91 105V107H508.91V105H506.91ZM494.19 105H492.19V107H494.19V105ZM494.19 43.92L496.174 43.6675L492.19 43.92H494.19ZM495.03 50.52L496.663 51.6747L497.113 51.0394L497.014 50.2675L495.03 50.52ZM462.87 96V98H463.906L464.503 97.1547L462.87 96ZM462.63 96L461.008 97.1689L461.606 98H462.63V96ZM429.87 50.52L427.989 49.8426L427.632 50.834L428.248 51.6889L429.87 50.52ZM432.03 44.52H434.03L430.149 43.8426L432.03 44.52ZM432.03 105V107H434.03V105H432.03ZM421.67 105V15H417.67V105H421.67ZM419.67 17H419.79V13H419.67V17ZM418.156 16.1531L464.476 81.7931L467.745 79.4869L421.425 13.8469L418.156 16.1531ZM466.535 78.6856L461.015 77.4856L460.166 81.3943L465.686 82.5944L466.535 78.6856ZM462.217 80.6033L508.297 16.1633L505.044 13.8367L458.964 78.2767L462.217 80.6033ZM506.67 17H506.91V13H506.67V17ZM504.91 15V105H508.91V15H504.91ZM506.91 103H494.19V107H506.91V103ZM496.19 105V43.92H492.19V105H496.19ZM492.206 44.1725L493.046 50.7725L497.014 50.2675L496.174 43.6675L492.206 44.1725ZM493.397 49.3653L461.237 94.8453L464.503 97.1547L496.663 51.6747L493.397 49.3653ZM462.87 94H462.63V98H462.87V94ZM464.253 94.8311L431.493 49.351L428.248 51.6889L461.008 97.1689L464.253 94.8311ZM431.752 51.1974L433.912 45.1974L430.149 43.8426L427.989 49.8426L431.752 51.1974ZM430.03 44.52V105H434.03V44.52H430.03ZM432.03 103H419.67V107H432.03V103ZM564.95 17.88V15.88H562.95V17.88H564.95ZM577.79 17.88H579.79V15.88H577.79V17.88ZM577.79 105V107H579.79V105H577.79ZM564.95 105H562.95V107H564.95V105ZM564.95 19.88H577.79V15.88H564.95V19.88ZM575.79 17.88V105H579.79V17.88H575.79ZM577.79 103H564.95V107H577.79V103ZM566.95 105V17.88H562.95V105H566.95ZM700.016 98.4L701.149 100.048L702.547 99.0871L701.827 97.5511L700.016 98.4ZM694.256 101.64L695.127 103.44L695.139 103.435L695.15 103.429L694.256 101.64ZM685.376 104.76L684.88 102.822L684.869 102.825L685.376 104.76ZM674.216 105.96L674.255 103.96L674.247 103.96L674.239 103.96L674.216 105.96ZM655.856 102.36L655.061 104.195L655.071 104.2L655.856 102.36ZM642.176 92.88L640.705 94.2354L640.712 94.2426L640.719 94.2498L642.176 92.88ZM633.416 78.96L631.545 79.6684L631.552 79.6857L631.559 79.7028L633.416 78.96ZM633.536 44.16L635.404 44.8743L635.407 44.8652L633.536 44.16ZM642.416 29.76L640.974 28.3743L640.966 28.3818L640.959 28.3893L642.416 29.76ZM656.096 20.28L655.315 18.4388L655.305 18.4432L656.096 20.28ZM687.896 19.08L687.263 20.9774L687.896 19.08ZM698.816 24.12L700.66 24.8945L701.307 23.3523L699.904 22.4421L698.816 24.12ZM693.776 36.12L692.64 37.7664L694.667 39.1639L695.62 36.8945L693.776 36.12ZM685.136 31.56L684.311 33.3822L684.337 33.3939L684.364 33.4049L685.136 31.56ZM662.216 31.8L663.028 33.6276L663.037 33.6235L663.046 33.6194L662.216 31.8ZM652.616 38.64L651.163 37.2656L651.162 37.2668L652.616 38.64ZM646.136 48.84L647.982 49.6092L647.985 49.6025L647.987 49.5958L646.136 48.84ZM645.896 74.28L644.018 74.9696L645.896 74.28ZM652.016 84.48L650.542 85.8315L650.552 85.8424L650.562 85.8532L652.016 84.48ZM661.736 91.2L660.953 93.0403L661.736 91.2ZM686.216 91.56L685.48 89.7001L685.473 89.7031L685.465 89.7061L686.216 91.56ZM694.616 86.88L696.427 86.0311L695.339 83.7108L693.352 85.3295L694.616 86.88ZM698.883 96.7519C697.718 97.553 695.895 98.5843 693.361 99.8511L695.15 103.429C697.736 102.136 699.754 101.007 701.149 100.048L698.883 96.7519ZM693.385 99.8397C691.054 100.968 688.226 101.967 684.88 102.822L685.871 106.698C689.406 105.793 692.498 104.712 695.127 103.44L693.385 99.8397ZM684.869 102.825C681.715 103.651 678.182 104.037 674.255 103.96L674.177 107.96C678.409 108.043 682.317 107.629 685.883 106.695L684.869 102.825ZM674.239 103.96C667.662 103.883 661.806 102.723 656.64 100.52L655.071 104.2C660.785 106.637 667.169 107.877 674.192 107.96L674.239 103.96ZM656.65 100.525C651.524 98.3059 647.194 95.2989 643.633 91.5102L640.719 94.2498C644.677 98.4611 649.467 101.774 655.061 104.195L656.65 100.525ZM643.647 91.5246C640.053 87.6253 637.263 83.1934 635.273 78.2172L631.559 79.7028C633.728 85.1266 636.779 89.9747 640.705 94.2354L643.647 91.5246ZM635.286 78.2515C633.376 73.2088 632.416 67.8498 632.416 62.16H628.416C628.416 68.3102 629.456 74.1512 631.545 79.6684L635.286 78.2515ZM632.416 62.16C632.416 55.8135 633.421 50.0593 635.404 44.8743L631.668 43.4457C629.49 49.1407 628.416 55.3865 628.416 62.16H632.416ZM635.407 44.8652C637.399 39.579 640.223 35.0084 643.872 31.1307L640.959 28.3893C636.929 32.6716 633.832 37.701 631.664 43.4548L635.407 44.8652ZM643.858 31.1456C647.593 27.2581 651.932 24.2514 656.887 22.1168L655.305 18.4432C649.86 20.7886 645.078 24.1019 640.974 28.3743L643.858 31.1456ZM656.877 22.1212C661.889 19.9949 667.38 18.92 673.376 18.92V14.92C666.891 14.92 660.863 16.0851 655.315 18.4388L656.877 22.1212ZM673.376 18.92C678.558 18.92 683.18 19.6162 687.263 20.9774L688.528 17.1826C683.972 15.6638 678.914 14.92 673.376 14.92V18.92ZM687.263 20.9774C691.467 22.3784 694.944 23.9922 697.727 25.7979L699.904 22.4421C696.768 20.4078 692.965 18.6616 688.528 17.1826L687.263 20.9774ZM696.972 23.3455L691.932 35.3455L695.62 36.8945L700.66 24.8945L696.972 23.3455ZM694.911 34.4736C692.448 32.7745 689.437 31.1925 685.908 29.7151L684.364 33.4049C687.714 34.8075 690.464 36.2655 692.64 37.7664L694.911 34.4736ZM685.96 29.7378C682.31 28.0865 678.264 27.28 673.856 27.28V31.28C677.768 31.28 681.242 31.9935 684.311 33.3822L685.96 29.7378ZM673.856 27.28C669.492 27.28 665.328 28.1805 661.385 29.9806L663.046 33.6194C666.463 32.0594 670.06 31.28 673.856 31.28V27.28ZM661.404 29.9724C657.554 31.6833 654.138 34.1204 651.163 37.2656L654.069 40.0144C656.694 37.2396 659.678 35.1166 663.028 33.6276L661.404 29.9724ZM651.162 37.2668C648.261 40.3383 645.971 43.9515 644.284 48.0842L647.987 49.5958C649.501 45.8885 651.531 42.7017 654.07 40.0132L651.162 37.2668ZM644.29 48.0708C642.579 52.177 641.736 56.6415 641.736 61.44H645.736C645.736 57.1185 646.493 53.183 647.982 49.6092L644.29 48.0708ZM641.736 61.44C641.736 66.2893 642.489 70.8056 644.018 74.9696L647.773 73.5904C646.423 69.9144 645.736 65.8707 645.736 61.44H641.736ZM644.018 74.9696C645.542 79.1173 647.713 82.7463 650.542 85.8315L653.49 83.1285C651.038 80.4537 649.13 77.2827 647.773 73.5904L644.018 74.9696ZM650.562 85.8532C653.477 88.9398 656.947 91.336 660.953 93.0403L662.519 89.3597C659.004 87.864 655.995 85.7802 653.47 83.1068L650.562 85.8532ZM660.953 93.0403C664.996 94.7608 669.508 95.6 674.456 95.6V91.6C669.964 91.6 665.996 90.8392 662.519 89.3597L660.953 93.0403ZM674.456 95.6C679.134 95.6 683.319 94.8902 686.966 93.4139L685.465 89.7061C682.393 90.9498 678.737 91.6 674.456 91.6V95.6ZM686.951 93.4199C690.523 92.0076 693.518 90.3546 695.879 88.4305L693.352 85.3295C691.394 86.9254 688.788 88.3924 685.48 89.7001L686.951 93.4199ZM692.805 87.7289L698.205 99.2489L701.827 97.5511L696.427 86.0311L692.805 87.7289ZM822.693 17.88H824.693V15.88H822.693V17.88ZM822.693 105V107H824.693V105H822.693ZM809.853 105H807.853V107H809.853V105ZM809.853 67.44H811.853V65.44H809.853V67.44ZM765.693 67.44V65.44H763.693V67.44H765.693ZM765.693 105V107H767.693V105H765.693ZM752.853 105H750.853V107H752.853V105ZM752.853 17.88V15.88H750.853V17.88H752.853ZM765.693 17.88H767.693V15.88H765.693V17.88ZM765.693 55.2H763.693V57.2H765.693V55.2ZM809.853 55.2V57.2H811.853V55.2H809.853ZM809.853 17.88V15.88H807.853V17.88H809.853ZM820.693 17.88V105H824.693V17.88H820.693ZM822.693 103H809.853V107H822.693V103ZM811.853 105V67.44H807.853V105H811.853ZM809.853 65.44H765.693V69.44H809.853V65.44ZM763.693 67.44V105H767.693V67.44H763.693ZM765.693 103H752.853V107H765.693V103ZM754.853 105V17.88H750.853V105H754.853ZM752.853 19.88H765.693V15.88H752.853V19.88ZM763.693 17.88V55.2H767.693V17.88H763.693ZM765.693 57.2H809.853V53.2H765.693V57.2ZM811.853 55.2V17.88H807.853V55.2H811.853ZM809.853 19.88H822.693V15.88H809.853V19.88ZM880.789 17.88V15.88H878.789V17.88H880.789ZM893.629 17.88H895.629V15.88H893.629V17.88ZM893.629 105V107H895.629V105H893.629ZM880.789 105H878.789V107H880.789V105ZM880.789 19.88H893.629V15.88H880.789V19.88ZM891.629 17.88V105H895.629V17.88H891.629ZM893.629 103H880.789V107H893.629V103ZM882.789 105V17.88H878.789V105H882.789Z" fill="#9ED0E0" mask="url(#path-1-outside-1_26_1518)"/>
</svg>
