<svg width="33" height="33" viewBox="0 0 33 33" fill="none" xmlns="http://www.w3.org/2000/svg">
<path d="M11.7209 12.5065L16.8942 17.6799L22.0676 12.5065C22.191 12.3831 22.3375 12.2852 22.4988 12.2184C22.6601 12.1516 22.833 12.1172 23.0076 12.1172C23.1821 12.1172 23.355 12.1516 23.5163 12.2184C23.6776 12.2852 23.8241 12.3831 23.9476 12.5065C24.071 12.63 24.1689 12.7765 24.2357 12.9378C24.3025 13.0991 24.3369 13.272 24.3369 13.4465C24.3369 13.6211 24.3025 13.794 24.2357 13.9553C24.1689 14.1166 24.071 14.2631 23.9476 14.3865L17.8276 20.5065C17.3076 21.0265 16.4676 21.0265 15.9476 20.5065L9.82755 14.3865C9.70395 14.2632 9.60589 14.1167 9.53898 13.9554C9.47207 13.7941 9.43763 13.6212 9.43763 13.4465C9.43763 13.2719 9.47207 13.099 9.53898 12.9377C9.60589 12.7764 9.70395 12.6299 9.82755 12.5065C10.3476 11.9999 11.2009 11.9865 11.7209 12.5065Z" fill="white"/>
</svg>
