<svg width="52" height="55" viewBox="0 0 52 55" fill="none" xmlns="http://www.w3.org/2000/svg">
<rect width="52" height="55" fill="#CE2073"/>
<path d="M20.7209 23.5065L25.8942 28.6799L31.0676 23.5065C31.191 23.3831 31.3375 23.2852 31.4988 23.2184C31.6601 23.1516 31.833 23.1172 32.0076 23.1172C32.1821 23.1172 32.355 23.1516 32.5163 23.2184C32.6776 23.2852 32.8241 23.3831 32.9476 23.5065C33.071 23.63 33.1689 23.7765 33.2357 23.9378C33.3025 24.0991 33.3369 24.272 33.3369 24.4465C33.3369 24.6211 33.3025 24.794 33.2357 24.9553C33.1689 25.1166 33.071 25.2631 32.9476 25.3865L26.8276 31.5065C26.3076 32.0265 25.4676 32.0265 24.9476 31.5065L18.8276 25.3865C18.7039 25.2632 18.6059 25.1167 18.539 24.9554C18.4721 24.7941 18.4376 24.6212 18.4376 24.4465C18.4376 24.2719 18.4721 24.099 18.539 23.9377C18.6059 23.7764 18.7039 23.6299 18.8276 23.5065C19.3476 22.9999 20.2009 22.9865 20.7209 23.5065Z" fill="white"/>
</svg>
